/* XPM */
static char *dummy[]={
"16 16 5 1",
"a c #17325d",
"# c #919eb5",
"c c #afb7c9",
"b c #c8cedd",
". c #ffffff",
"................",
"................",
".#ab.ca#.#ab.ca#",
".bab.aba.bab.aba",
".bab.aba.bab.aba",
".bab.aba.bab.aba",
".bab.#a#.bab.#a#",
"................",
".ca#.#ab.ca#.#ab",
".aba.bab.aba.bab",
".aba.bab.aba.bab",
".aba.bab.aba.bab",
".#a#.bab.#a#.bab",
"................",
"................",
"................"};
